# xmcd
#
# Track frame offsets:
#	150
#	19500
#	37462
#	57327
#	74477
#	99740
#	116232
#	136202
#	164725
#	183067
#	200680
#
# Disc length: 3156 seconds
#
# Revision: 1
# Processed by: cddbd v1.5PL3 Copyright (c) Steve Scherf et al.
# Submitted via: audiograbber 1.83.01
#
DISCID=a80c520b
DTITLE=Inner City Blues Band - City Limits
DYEAR=2003
DGENRE=Blues
TTITLE0=Nothing To Lose
TTITLE1=Big Legged Woman
TTITLE2=Fussin' and Fightin'
TTITLE3=Treat Me So Cold
TTITLE4=Me and You
TTITLE5=Easy Recipe
TTITLE6=You Gotta Go
TTITLE7=The Love of My Man
TTITLE8=Table Scraps
TTITLE9=Just a Little Bit
TTITLE10=Take Off Your Shoes
EXTD=
EXTT0=
EXTT1=
EXTT2=
EXTT3=
EXTT4=
EXTT5=
EXTT6=
EXTT7=
EXTT8=
EXTT9=
EXTT10=
PLAYORDER=
